<svg xmlns="http://www.w3.org/2000/svg" version="1.1" xmlns:xlink="http://www.w3.org/1999/xlink" xmlns:svgjs="http://svgjs.dev/svgjs" width="1920" height="902" preserveAspectRatio="none" viewBox="0 0 1920 902"><g mask="url(&quot;#SvgjsMask1078&quot;)" fill="none"><path d="M635.59,270.244C675.224,273.455,721.028,271.862,742.176,238.188C764.155,203.191,749.936,158.311,727.806,123.41C707.427,91.27,673.645,69.81,635.59,70.094C598.01,70.374,563.204,91.498,545.725,124.767C529.319,155.995,536.696,193.033,555.235,223.044C572.732,251.369,602.405,267.556,635.59,270.244" fill="rgba(28, 83, 142, 0.4)" class="triangle-float1"></path><path d="M1115.037,642.792C1141.527,644.002,1163.476,623.735,1175.903,600.309C1187.527,578.397,1186.393,552.606,1174.393,530.898C1161.954,508.396,1140.733,491.072,1115.037,490.206C1087.893,489.291,1060.367,502.309,1048.321,526.65C1037.216,549.089,1050.627,573.444,1063.098,595.154C1075.64,616.987,1089.884,641.643,1115.037,642.792" fill="rgba(28, 83, 142, 0.4)" class="triangle-float2"></path><path d="M1167.769,731.541C1240.606,730.738,1302.611,681.8,1336.745,617.452C1368.743,557.13,1363.059,485.984,1329.601,426.46C1295.383,365.584,1237.499,320.643,1167.769,316.833C1090.924,312.634,1010.546,340.256,972.099,406.924C933.678,473.547,952.511,555.383,992.214,621.25C1030.452,684.687,1093.704,732.358,1167.769,731.541" fill="rgba(28, 83, 142, 0.4)" class="triangle-float3"></path><path d="M283.122,569.423C325.286,569.268,364.614,544.809,383.282,507.003C400.231,472.678,386.297,433.792,366.176,401.224C347.33,370.72,318.954,346.196,283.122,344.881C245.033,343.483,208.944,362.362,188.792,394.714C167.399,429.058,162.452,472.142,181.676,507.746C201.828,545.069,240.706,569.579,283.122,569.423" fill="rgba(28, 83, 142, 0.4)" class="triangle-float2"></path><path d="M1517.502,448.547C1571.022,452.184,1629.347,441.186,1658.127,395.917C1688.587,348.006,1680.564,286.14,1651.914,237.125C1623.547,188.595,1573.705,154.336,1517.502,155.337C1462.815,156.311,1415.471,192.785,1391.139,241.771C1369.222,285.896,1380.807,336.777,1406.498,378.816C1430.92,418.778,1470.776,445.371,1517.502,448.547" fill="rgba(28, 83, 142, 0.4)" class="triangle-float3"></path><path d="M207.696,187.031C234.716,186.885,253.078,162.064,265.214,137.923C275.945,116.577,277.989,91.718,265.999,71.053C254.052,50.462,231.501,38.537,207.696,38.79C184.326,39.038,163.335,52.118,151.497,72.269C139.494,92.7,138.669,117.27,149.09,138.551C161.041,162.955,180.523,187.178,207.696,187.031" fill="rgba(28, 83, 142, 0.4)" class="triangle-float2"></path><path d="M991.119,273.312C1033.969,273.076,1081.156,267.178,1103.112,230.379C1125.447,192.945,1112.502,145.925,1089.048,109.181C1067.528,75.467,1031.075,56.745,991.119,54.925C947.2,52.924,900.272,62.566,876.415,99.495C850.799,139.146,850.964,192.227,876.965,231.627C900.879,267.865,947.703,273.552,991.119,273.312" fill="rgba(28, 83, 142, 0.4)" class="triangle-float2"></path><path d="M666.287,915.138C703.225,914.641,742.866,908.01,762.212,876.54C782.285,843.889,777.399,801.146,755.852,769.448C736.609,741.139,700.508,734.622,666.287,735.421C633.806,736.18,602.303,746.841,583.687,773.469C561.738,804.865,546.487,846.092,565.782,879.185C584.99,912.129,628.155,915.651,666.287,915.138" fill="rgba(28, 83, 142, 0.4)" class="triangle-float2"></path><path d="M225.711,824.013C289.118,823.622,354.318,807.066,388.713,753.797C425.899,696.207,433.398,618.726,394.881,562.018C359.571,510.031,288.556,514.012,225.711,513.81C162.32,513.606,90.578,508.7,54.646,560.923C15.165,618.304,21.22,697.436,59.188,755.83C94.232,809.726,161.425,824.41,225.711,824.013" fill="rgba(28, 83, 142, 0.4)" class="triangle-float2"></path><path d="M1206.183,880.799C1235.217,879.873,1259.533,859.828,1272.589,833.878C1284.389,810.425,1278.985,783.803,1266.644,760.631C1253.313,735.6,1234.455,711.42,1206.183,709.193C1174.4,706.69,1142.496,721.956,1126.62,749.603C1110.8,777.153,1115.535,811.199,1132.009,838.363C1147.84,864.468,1175.669,881.773,1206.183,880.799" fill="rgba(28, 83, 142, 0.4)" class="triangle-float3"></path><path d="M1542.332,175.731C1570.331,175.488,1596.653,160.852,1610.038,136.259C1622.895,112.636,1617.612,84.753,1604.682,61.17C1591.125,36.445,1570.501,14.061,1542.332,12.775C1512.218,11.4,1483.997,28.683,1469.275,54.989C1454.876,80.718,1457.296,112.226,1472.559,137.452C1487.278,161.778,1513.901,175.978,1542.332,175.731" fill="rgba(28, 83, 142, 0.4)" class="triangle-float1"></path><path d="M1428.545,1061.199C1513.303,1066.737,1593.554,1012.887,1631.079,936.686C1665.162,867.475,1633.454,790.531,1594.679,723.836C1556.181,657.618,1505.116,590.259,1428.545,588.318C1349.519,586.314,1282.338,644.237,1247.15,715.025C1215.52,778.656,1234.213,849.968,1267.194,912.909C1303.532,982.257,1350.42,1056.094,1428.545,1061.199" fill="rgba(28, 83, 142, 0.4)" class="triangle-float3"></path><path d="M1800.105,536.781C1837.461,538.149,1869.93,514.188,1889.432,482.297C1909.935,448.77,1919.933,406.92,1900.359,372.842C1880.726,338.662,1839.495,325.325,1800.105,326.781C1763.366,328.139,1729.05,347.281,1711.917,379.809C1695.8,410.409,1704.495,445.992,1721.435,476.144C1738.816,507.082,1764.643,535.482,1800.105,536.781" fill="rgba(28, 83, 142, 0.4)" class="triangle-float1"></path></g><defs><mask id="SvgjsMask1078"><rect width="1920" height="902" fill="#ffffff"></rect></mask><style>
                @keyframes float1 {
                    0%{transform: translate(0, 0)}
                    50%{transform: translate(-10px, 0)}
                    100%{transform: translate(0, 0)}
                }

                .triangle-float1 {
                    animation: float1 5s infinite;
                }

                @keyframes float2 {
                    0%{transform: translate(0, 0)}
                    50%{transform: translate(-5px, -5px)}
                    100%{transform: translate(0, 0)}
                }

                .triangle-float2 {
                    animation: float2 4s infinite;
                }

                @keyframes float3 {
                    0%{transform: translate(0, 0)}
                    50%{transform: translate(0, -10px)}
                    100%{transform: translate(0, 0)}
                }

                .triangle-float3 {
                    animation: float3 6s infinite;
                }
            </style></defs></svg>